#!OML:ASF X:\für Bonn\!DataBase\2005_08_11_Bastian_Final\c3d\Bastian.ASF
:FULLY-SPECIFIED
:DEGREES
190
root -21.7616 17.6345 0.197761 100.064 -80.3768 -103.934
lowerback 6.12127 2.05457 5.84664
upperback 3.42988 2.93588 -2.1275
thorax 0.540094 1.54573 -5.6484
lowerneck -7.92631 -9.36128 -0.677331
upperneck -13.7029 -12.0409 16.016
head -1.6887 -6.69194 4.76347
rclavicle -4.57205e-015 -1.59028e-014
rhumerus 55.2967 -1.19751 -25.1044
rradius 57.2739
rwrist 1.59154
rhand -25.0456 -1.84931
rfingers 7.12502
rthumb 1.46752 -31.824
lclavicle -4.57205e-015 -1.59028e-014
lhumerus -29.3779 -8.60976 82.3088
lradius 16.0104
lwrist 14.1693
lhand -11.0017 -6.93129
lfingers 7.12502
lthumb 15.0188 22.504
rfemur 8.89136 4.19388 25.7175
rtibia 28.9169
rfoot -10.6627 1.1423
rtoes -27.7931
lfemur -7.98091 5.98811 -11.8447
ltibia 28.2585
lfoot -7.72708 -10.8448
ltoes -0.884279
191
root -21.7638 17.6348 0.199775 101.188 -80.374 -105.045
lowerback 6.12404 1.94714 5.72721
upperback 3.42372 2.7876 -2.06046
thorax 0.500678 1.46732 -5.50436
lowerneck -7.96305 -9.22257 -0.536608
upperneck -13.5709 -11.8809 15.9047
head -1.67422 -6.60798 4.70873
rclavicle -3.63776e-014 3.02153e-014
rhumerus 55.0161 -0.903163 -25.1506
rradius 59.6326
rwrist 2.42992
rhand -24.8926 -1.49454
rfingers 7.12502
rthumb 1.61529 -31.4682
lclavicle -3.63776e-014 3.02153e-014
lhumerus -29.4329 -8.66504 82.4419
lradius 16.0993
lwrist 14.1618
lhand -11.0252 -6.97181
lfingers 7.12502
lthumb 14.9963 22.4652
rfemur 8.83168 4.26915 25.6374
rtibia 28.9756
rfoot -10.7091 1.25532
rtoes -27.7025
lfemur -7.94254 5.99355 -11.8983
ltibia 28.231
lfoot -7.78096 -10.6705
ltoes -0.947234
192
root -21.7651 17.634 0.201673 102.295 -80.3628 -106.147
lowerback 6.14424 1.81987 5.59846
upperback 3.41128 2.6137 -1.97805
thorax 0.44133 1.37509 -5.33855
lowerneck -7.9652 -9.06172 -0.458157
upperneck -13.4459 -11.6834 15.8241
head -1.6632 -6.50492 4.67565
rclavicle -3.06128e-014 7.95139e-015
rhumerus 54.7361 -0.502886 -25.0652
rradius 62.0562
rwrist 2.94007
rhand -24.7184 -1.10871
rfingers 7.12502
rthumb 1.78349 -31.081
lclavicle -3.06128e-014 7.95139e-015
lhumerus -29.5205 -8.78375 82.6165
lradius 16.2142
lwrist 14.2292
lhand -11.0491 -6.94138
lfingers 7.12502
lthumb 14.9732 22.4973
rfemur 8.77746 4.35797 25.5661
rtibia 29.035
rfoot -10.7557 1.34979
rtoes -27.5761
lfemur -7.90666 6.05421 -11.9388
ltibia 28.2119
lfoot -7.83934 -10.5598
ltoes -1.15969
193
root -21.7662 17.6343 0.204138 103.559 -80.3445 -107.398
lowerback 6.14556 1.69823 5.47959
upperback 3.40726 2.44649 -1.89882
thorax 0.404131 1.2874 -5.18079
lowerneck -7.96775 -8.88822 -0.359957
upperneck -13.3359 -11.4703 15.7108
head -1.66127 -6.39494 4.63115
rclavicle 2.08724e-014 -2.38542e-014
rhumerus 54.4561 -0.0720348 -24.953
rradius 64.4899
rwrist 3.2423
rhand -24.4984 -0.673759
rfingers 7.12502
rthumb 1.99598 -30.6442
lclavicle 2.08724e-014 -2.38542e-014
lhumerus -29.5352 -8.76395 82.7295
lradius 16.2602
lwrist 14.1461
lhand -11.0531 -6.9584
lfingers 7.12502
lthumb 14.9693 22.4806
rfemur 8.69949 4.44763 25.483
rtibia 29.1016
rfoot -10.7852 1.45284
rtoes -27.441
lfemur -7.8712 6.01882 -11.9929
ltibia 28.1925
lfoot -7.89153 -10.3478
ltoes -1.02327
194
root -21.7683 17.6344 0.207225 104.893 -80.3138 -108.723
lowerback 6.13698 1.5765 5.37589
upperback 3.40685 2.27926 -1.82782
thorax 0.378504 1.20052 -5.03967
lowerneck -7.978 -8.70764 -0.239112
upperneck -13.2136 -11.2511 15.5831
head -1.657 -6.28166 4.57812
rclavicle 6.36111e-015 6.04305e-014
rhumerus 54.1702 0.421652 -24.8068
rradius 66.9698
rwrist 3.36586
rhand -24.2224 -0.215408
rfingers 7.12502
rthumb 2.26259 -30.1832
lclavicle 6.36111e-015 6.04305e-014
lhumerus -29.5701 -8.82861 82.8533
lradius 16.3441
lwrist 14.1746
lhand -11.0815 -6.97496
lfingers 7.12502
lthumb 14.942 22.4661
rfemur 8.63063 4.52964 25.3888
rtibia 29.1733
rfoot -10.819 1.59798
rtoes -27.1952
lfemur -7.82872 6.01564 -12.046
ltibia 28.1816
lfoot -7.97331 -10.1261
ltoes -1.15399
195
root -21.7696 17.6333 0.21039 106.25 -80.2576 -110.07
lowerback 6.12781 1.45433 5.28195
upperback 3.3976 2.1126 -1.73547
thorax 0.344687 1.11362 -4.88186
lowerneck -8.10394 -8.51254 -0.0483379
upperneck -12.7497 -11.1018 14.9939
head -1.80513 -6.15626 4.85319
rclavicle -2.8625e-014 -3.49861e-014
rhumerus 53.9041 0.975839 -24.5884
rradius 69.4487
rwrist 3.37583
rhand -23.9156 0.276694
rfingers 7.12502
rthumb 2.55889 -29.6877
lclavicle -2.8625e-014 -3.49861e-014
lhumerus -29.5922 -8.67471 82.9301
lradius 16.4024
lwrist 13.9762
lhand -11.089 -6.99929
lfingers 7.12502
lthumb 14.9348 22.4423
rfemur 8.55195 4.62976 25.324
rtibia 29.2527
rfoot -10.8557 1.70711
rtoes -26.9765
lfemur -7.78429 5.98653 -12.0768
ltibia 28.1715
lfoot -8.05696 -9.88827
ltoes -1.28883
